<svg xmlns="http://www.w3.org/2000/svg" viewBox="0 0 24 24" class="h-6 w-6 mt-1 drop-shadow-yellow"><g><path d="M13,.92a19.48,19.48,0,0,1,2.37.49A.3.3,0,0,0,15.79,1,8.56,8.56,0,0,0,12.1,0,12,12,0,0,0,9.21,1.4c-.35.32.1.71.94.29C12.55.66,12.28.86,13,.92Z" fill="currentColor" fill-rule="evenodd"/><path d="M17.36,3.28c-.08-.81-.13-1.8-.8-1.85a7.92,7.92,0,0,0-3.32,1.5c-.39.32-.21.67.15.47a12.6,12.6,0,0,1,2.76-.89c.05.4.28,3.8.28,3.83a9.38,9.38,0,0,1-2.54,1.44c-.37.27-.31.8.07.73A11.77,11.77,0,0,0,17.22,7a.72.72,0,0,0,.2-.32A19.62,19.62,0,0,0,17.36,3.28Z" fill="currentColor" fill-rule="evenodd"/><path d="M13.39,7.89c-.17-4.34-.62-4.35-.85-4.53a12.63,12.63,0,0,0-4-1.31.46.46,0,0,0-.28.13c-.19.32-.17.33-.23,1.6a30.28,30.28,0,0,0,0,3.39C8.27,7.84,12,9.08,12.79,9a.72.72,0,0,0,.41-.2C13.29,8.73,13.37,8.17,13.39,7.89ZM8.93,6.77c-.19-1.13-.2-3.93-.21-4A14.71,14.71,0,0,1,12,4.1c.14.76.22,3,.24,3.68A27,27,0,0,1,8.93,6.77Z" fill="currentColor" fill-rule="evenodd"/><path d="M7.13,18.38c0,1.47-.07,3.75-.14,4.67a20.39,20.39,0,0,1-4.26-1.3c-.29-.12-.55-.35-.69-.38,0-.21-.24-4.54-.11-5.11a22.63,22.63,0,0,1,4.37.87.3.3,0,0,0,.19-.57,21.56,21.56,0,0,0-4.81-1.19.65.65,0,0,0-.66.57,29.48,29.48,0,0,0,0,6c.34.86,5.21,2.14,6.21,2.06a.72.72,0,0,0,.61-.34,43.12,43.12,0,0,0,0-5.33A.34.34,0,0,0,7.13,18.38Z" fill="currentColor" fill-rule="evenodd"/><path d="M3.26,15s.11-.06.18-.08a28.17,28.17,0,0,1,3.38-.8,12.56,12.56,0,0,1,1.44.13,18.53,18.53,0,0,1,2.83.35.29.29,0,1,0,.4-.43A12.13,12.13,0,0,0,6.6,13c-.3.08-3.64,1.11-3.9,1.59A.35.35,0,0,0,3.26,15Z" fill="currentColor" fill-rule="evenodd"/><path d="M13.36,17c-.22-2.15-.4-2.58-2-2A17.78,17.78,0,0,0,7.4,16.89a.29.29,0,1,0,.44.39A17.53,17.53,0,0,1,12.1,15.8c0,.58,0-.51.28,3.26.16,2.29.23,1.86-.06,2.08a13.5,13.5,0,0,1-3.61,1.72.34.34,0,0,0,.15.66c.93-.19,4.33-1.31,4.63-2.22A26.88,26.88,0,0,0,13.36,17Zm-.85,4s0-.11.05-.08S12.56,21,12.51,21Z" fill="currentColor" fill-rule="evenodd"/><path d="M19.31,11.12a11.56,11.56,0,0,0,2,.05l.45-.15a.32.32,0,0,0,0-.28,4.57,4.57,0,0,0-2.6-.73A6.53,6.53,0,0,0,17,11.1c-.35.2.28.46.86.38A7.23,7.23,0,0,1,19.31,11.12Z" fill="currentColor" fill-rule="evenodd"/><path d="M20.05,16.27c0-.5-.07-1.92-.11-2.76a.34.34,0,1,0-.67,0l-.12,2.64a9.7,9.7,0,0,1-2.24-.93c0-.07-.13-2.71-.12-2.83a13.84,13.84,0,0,1,2.13.46.3.3,0,0,0,.2-.56,10.31,10.31,0,0,0-2.82-.76.54.54,0,0,0-.24.14c-.45.41-.26,4-.22,4.1a1,1,0,0,0,.45.46,8.56,8.56,0,0,0,3.27.92A.76.76,0,0,0,20,17S20.05,16.69,20.05,16.27Z" fill="currentColor" fill-rule="evenodd"/><path d="M23.06,12.65c-.1-1-.13-1.69-1.09-1.45l-.7.29a16.8,16.8,0,0,0-1.82,1,.3.3,0,0,0,.47.37,8.55,8.55,0,0,1,2-.74c.14,1.51.22,2.08.22,2.83,0,.25-.53.48-1,.73l-.44.24c-.41.22-.34.82,0,.71.73-.19,2.21-.67,2.42-1.33A14.44,14.44,0,0,0,23.06,12.65Z" fill="currentColor" fill-rule="evenodd"/></g></svg>