<svg xmlns="http://www.w3.org/2000/svg" viewBox="0 0 24 24" class="h-6 w-6 mt-1 drop-shadow-yellow"><g><path d="M6,16l-.24,0a.79.79,0,0,0-.31.22.45.45,0,0,0-.11.23.25.25,0,0,0,0,.21C6.16,17.5,6.56,16.11,6,16Z" fill="currentColor" fill-rule="evenodd"/><path d="M8.5,15.89l-.23,0c-.16.09-.22.1-.31.22a.48.48,0,0,0-.11.24c0,.07,0,.16,0,.21C8.7,17.36,9.1,16,8.5,15.89Z" fill="currentColor" fill-rule="evenodd"/><path d="M11.47,17.26a4,4,0,0,0-3.71-4,4,4,0,0,0-1,.07A4.81,4.81,0,0,0,3.06,17.2a4.06,4.06,0,0,0,1.73,3.94,4.29,4.29,0,0,0-.51.53,1.9,1.9,0,0,0-.23.39,2.23,2.23,0,0,0-.16.43,5.7,5.7,0,0,0-.17,1.06A.35.35,0,0,0,4,24a.35.35,0,0,0,.43-.24c.16-.28.34-.53.52-.82.07-.12.14-.24.2-.36a2.83,2.83,0,0,0,.16-.36c.09-.24.15-.47.22-.7a5,5,0,0,0,.58.22,4.56,4.56,0,0,0,1,.13,4.52,4.52,0,0,0,1-.09,4.24,4.24,0,0,0,1.07-.4q.1.24.24.48a5.22,5.22,0,0,0,.34.48,4.77,4.77,0,0,1,.53.72.34.34,0,0,0,.42.24.35.35,0,0,0,.25-.43,3.4,3.4,0,0,0-.23-1.05,1.59,1.59,0,0,0-.21-.41,1.81,1.81,0,0,0-.28-.34,2.61,2.61,0,0,0-.27-.22A4.42,4.42,0,0,0,11.47,17.26ZM7.9,20.62a4,4,0,0,1-.78.08,4.06,4.06,0,0,1-.78-.1A3,3,0,0,1,4,17.29C4.18,14.51,7.57,14,7.68,14a3.12,3.12,0,0,1,2.75,3.25A3.17,3.17,0,0,1,7.9,20.62Z" fill="currentColor" fill-rule="evenodd"/><path d="M8.08,17.9A4.08,4.08,0,0,1,6,18a.31.31,0,0,0-.42.45,1.83,1.83,0,0,0,1,.74,1.41,1.41,0,0,0,.54.07,1.62,1.62,0,0,0,.53-.11,1.94,1.94,0,0,0,1-.78.36.36,0,0,0,0-.49A.35.35,0,0,0,8.08,17.9Z" fill="currentColor" fill-rule="evenodd"/><path d="M20.7,2.83A4.28,4.28,0,0,0,18.19.18a3.13,3.13,0,0,0-2,0,3.74,3.74,0,0,0-1.63,1,4.63,4.63,0,0,0-.43.56,4,4,0,0,0-.27.44,5.87,5.87,0,0,0-.51-.78,4.38,4.38,0,0,0-2.29-1A5.25,5.25,0,0,0,8.66.71,3.81,3.81,0,0,0,6.25,3.08a4.6,4.6,0,0,0,.28,3.29A9.51,9.51,0,0,0,9.31,9.8c4.39,3.39,6.51,1,7,.69a24.36,24.36,0,0,0,2.23-1.8,13.53,13.53,0,0,0,1.27-1.24,4.81,4.81,0,0,0,.72-1A4.59,4.59,0,0,0,20.7,2.83ZM19.67,6a5,5,0,0,1-.56.87,14.7,14.7,0,0,1-1.17,1.2,19.25,19.25,0,0,1-2.11,1.8c-2.21,1.57-2,1.15-2.42,1.08A7.71,7.71,0,0,1,9.78,9.21,8.56,8.56,0,0,1,7.37,6a3.61,3.61,0,0,1-.15-2.59A2.74,2.74,0,0,1,9,1.77a4.24,4.24,0,0,1,1.9-.2,3.45,3.45,0,0,1,1.69.72c.22.19.54.71.83,1a1.48,1.48,0,0,0,.52.33.67.67,0,0,0,.45,0,.72.72,0,0,0,.38-.42,2.45,2.45,0,0,0,.06-.34,3.91,3.91,0,0,1,.26-.44A3,3,0,0,1,15.44,2a2.54,2.54,0,0,1,1.11-.73,2,2,0,0,1,1.27,0,3.17,3.17,0,0,1,1.9,2A3.56,3.56,0,0,1,19.67,6Z" fill="currentColor" fill-rule="evenodd"/><path d="M16.28,13.84a2,2,0,0,0-1-.32c-.76,0-1.13.21-1.65,1.08a1.82,1.82,0,0,0-.23.64A1.55,1.55,0,0,0,14.36,17a2.12,2.12,0,0,0,1.95-.24A1.74,1.74,0,0,0,17,15.25,1.69,1.69,0,0,0,16.28,13.84Zm-.63,1.92a1,1,0,0,1-.9.18.66.66,0,0,1-.5-.65,1,1,0,0,1,.09-.47c.2-.41.32-.57.89-.49a1.11,1.11,0,0,1,.51.25.74.74,0,0,1,.22.65A.67.67,0,0,1,15.65,15.76Z" fill="currentColor" fill-rule="evenodd"/></g></svg>