<svg xmlns="http://www.w3.org/2000/svg" viewBox="0 0 24 24" class="h-6 w-6 mt-1 drop-shadow-yellow"><g><path d="M18.78,9.62c-.11-.39-.23-.79-.36-1.17S18.14,7.68,18,7.3c-.07-.17-.14-.4-.24-.6a1.28,1.28,0,0,0-.24-.31A2.1,2.1,0,0,0,16.77,6a5.11,5.11,0,0,0-1.11-.25c-.6-.09-1.23-.15-1.85-.19-1.43-.07-1.27,0-3,0a8.55,8.55,0,0,0-1,.06l-1.35.29a7.13,7.13,0,0,0-1.36.47,1.6,1.6,0,0,0-.58.45,4.53,4.53,0,0,0-.75,1.65c-.21.84-.28,1.76-.41,2.5a12.57,12.57,0,0,0-.49,2.39,1.63,1.63,0,0,0,.57,1.26,3.49,3.49,0,0,0,1.14.61,6.39,6.39,0,0,0,1.77.31,4.45,4.45,0,0,0,.81,0,.8.8,0,0,0,.44-.23,2,2,0,0,0,.35-.5c.16-.32.26-.7.39-1,0,0,0,0,0-.06.32,0,.64.12,1,.15a3.26,3.26,0,0,0,.7,0l1.5-.18.21-.05a.94.94,0,0,1,.12.18,5.53,5.53,0,0,1,.36.79c0,.09.06.31.11.44a.79.79,0,0,0,.28.35,1.68,1.68,0,0,0,.61.21,6.68,6.68,0,0,0,1.08,0,7.67,7.67,0,0,0,1.94-.29,1.86,1.86,0,0,0,.89-.57,1.22,1.22,0,0,0,.24-.54,5.38,5.38,0,0,0,.06-.94,8.8,8.8,0,0,0-.11-1.54C19.16,11.07,19,10.35,18.78,9.62Zm-.41,4.27a.59.59,0,0,1-.07.29,1.19,1.19,0,0,1-.64.29,8,8,0,0,1-1.44.13c-.16,0-.41,0-.65,0l-.21,0a1.93,1.93,0,0,0-.15-.35,8.25,8.25,0,0,0-.42-.92,2.43,2.43,0,0,0-.51-.63.59.59,0,0,0-.4-.14,4,4,0,0,0-.58.09l-1.38.17a2.79,2.79,0,0,1-.5,0A12,12,0,0,0,10,12.61a.62.62,0,0,0-.55.29,3,3,0,0,0-.15.48c-.1.25-.18.55-.3.83a1.24,1.24,0,0,1-.1.2c-.1-.07-.42.06-.51.05a6.2,6.2,0,0,1-1.27-.15A2.74,2.74,0,0,1,6,13.84a.84.84,0,0,1-.22-.78c.05-.69.33-1.45.4-1.94.1-.73.14-1.63.32-2.45a3.72,3.72,0,0,1,.55-1.39A1.27,1.27,0,0,1,7.56,7a7.22,7.22,0,0,1,1-.38l1.26-.31a7.14,7.14,0,0,1,.93-.08c.17,0,2.14,0,3,.05.61,0,1.2.13,1.78.23a4.39,4.39,0,0,1,.95.23A1.49,1.49,0,0,1,17,7l.26.64a11.07,11.07,0,0,1,.39,1.1c.11.37.22.74.31,1.13a18.58,18.58,0,0,1,.42,2.1,7.82,7.82,0,0,1,.07,1.37C18.39,13.46,18.39,13.68,18.37,13.89Z" fill="currentColor" fill-rule="evenodd"/><path d="M10,8.26a1.74,1.74,0,0,0-.45-.06A1.69,1.69,0,0,0,8,10.31a1.39,1.39,0,0,0,1.58,1.18A1.75,1.75,0,0,0,11.1,10,1.48,1.48,0,0,0,10,8.26ZM10.1,9.8a.72.72,0,0,1-.61.58c-.47.08-.62-.41-.58-.81.1-.8.59-.65.61-.65A1.05,1.05,0,0,1,9.76,9,.66.66,0,0,1,10.1,9.8Z" fill="currentColor" fill-rule="evenodd"/><path d="M14.9,8.26c-2-.35-2.1,1.55-1.78,2.25a1.41,1.41,0,0,0,1.86.7,1.87,1.87,0,0,0,1-1,1.3,1.3,0,0,0-.25-1.5A1.72,1.72,0,0,0,14.9,8.26Zm.17,1.51a.85.85,0,0,1-.46.38c-.47.2-.75-.16-.76-.54,0-1.06,1-.67,1.24-.29C15.21,9.46,15.14,9.63,15.07,9.77Z" fill="currentColor" fill-rule="evenodd"/><path d="M23.16,3.7a4.68,4.68,0,0,0-1-2.41A2.91,2.91,0,0,0,20.71.43,10.34,10.34,0,0,0,18.5.22C16.7.14,15.66.05,14.43,0c-.77,0-1.61,0-2.74,0s-2,.11-3,.22-2,.25-3,.44a15.51,15.51,0,0,0-1.89.39,3.3,3.3,0,0,0-1.29.7A4.16,4.16,0,0,0,1.35,3.5,10.11,10.11,0,0,0,.86,6.3C.76,8,.71,9.64.75,11.33a36.58,36.58,0,0,0,.45,5,17.15,17.15,0,0,0,.54,3.23,2.57,2.57,0,0,0,1,1.28,2.82,2.82,0,0,0,1.12.39,21.76,21.76,0,0,0,2.42,0c.57,0,1.25,0,2,0,7.64-.22,8.12.11,8.13-.79V19l.06.05c.37.35.73.75,1.07,1.09,1,.86,1.86,1.78,2.79,2.67.41.38.83.75,1.26,1.12s.75-.44.75-.46c.08-.47.13-1.28.18-2.27.14-2.89.19-7.32.3-9l.34-4.86A16,16,0,0,0,23.16,3.7Zm-.92,3.59L22,12.17c-.09,1.64-.07,6.08-.17,9,0,.79-.06,1.44-.1,1.91-.9-1-1.73-2-2.62-2.95-.25-.27-.51-.54-.78-.8s-.72-.76-1.14-1.1a3.68,3.68,0,0,0-1-.61.48.48,0,0,0-.61.15.49.49,0,0,0-.11.3c0,.07.05.22.05.3l0,.56.17,1.45c-2,0-5.06.15-7.46.17-.73,0-1.4,0-2,0s-1.34.05-2,0a2.21,2.21,0,0,1-1.09-.32,2,2,0,0,1-.75-1.27,26.65,26.65,0,0,1-.31-2.68,34.82,34.82,0,0,1-.35-4.91c0-1.65.06-3.31.18-4.94a9.45,9.45,0,0,1,.44-2.49,3.13,3.13,0,0,1,.82-1.27,2.25,2.25,0,0,1,.88-.46,15.14,15.14,0,0,1,1.75-.36c1-.18,2-.32,2.93-.43s2-.18,3-.22,1.93,0,2.68,0c1.21,0,2.26.1,4.05.15a9.4,9.4,0,0,1,2,.16,1.79,1.79,0,0,1,1,.54,3.77,3.77,0,0,1,.81,1.89A14.72,14.72,0,0,1,22.24,7.29Z" fill="currentColor" fill-rule="evenodd"/></g></svg>