<svg xmlns="http://www.w3.org/2000/svg" viewBox="0 0 24 24" class="h-6 w-6 mt-1 drop-shadow-yellow"><g><path d="M7.38,4.94A13.74,13.74,0,0,0,9.07,6.09a.6.6,0,0,1,.13.09l0,.1c-.13.32-.67,1.33-.87,2-.15.46,0,.81.1.91a1.52,1.52,0,0,0,1.3.15,6.63,6.63,0,0,0,2-1.22,7.28,7.28,0,0,0,2.07,1.2,1.58,1.58,0,0,0,1.34-.12.47.47,0,0,0,.2-.35,1.4,1.4,0,0,0-.09-.58c-.21-.63-.76-1.64-.89-1.95a.62.62,0,0,0,0-.12l.1-.06a13.11,13.11,0,0,0,1.68-1.16,2,2,0,0,0,.77-1.15.52.52,0,0,0-.47-.53h-.31a19.08,19.08,0,0,1-2.6-.15l-.2-.42c-.2-.4-.4-.78-.61-1.17S12.35,1,12.17.73A.54.54,0,0,0,11.73.5a.55.55,0,0,0-.44.23c-.18.26-.34.52-.49.78s-.41.77-.61,1.17L10,3.1a17.66,17.66,0,0,1-2.6.14l-.3,0a.52.52,0,0,0-.48.53A2,2,0,0,0,7.38,4.94Zm2.87-.81a1.15,1.15,0,0,0,.48-.28,2.77,2.77,0,0,0,.42-.68c.19-.38.38-.76.58-1.12.2.36.4.74.59,1.12a2.28,2.28,0,0,0,.41.67,1.11,1.11,0,0,0,.48.28,14.64,14.64,0,0,0,2.28.11,3.45,3.45,0,0,1-.28.23,17.24,17.24,0,0,1-1.52,1.06,1,1,0,0,0-.32.32.52.52,0,0,0,0,.29c0,.13.18.41.2.48a15.13,15.13,0,0,1,1,2,1.36,1.36,0,0,1-.88-.13C12.26,8,12,7.22,11.53,7.47a9.24,9.24,0,0,1-1.71,1.1,1.18,1.18,0,0,1-.91.08,17.17,17.17,0,0,1,1-2.05,3.07,3.07,0,0,0,.21-.47.59.59,0,0,0,0-.28,1,1,0,0,0-.33-.32c-.3-.21-1-.62-1.51-1.07L8,4.24A14.43,14.43,0,0,0,10.25,4.13Z" fill="currentColor" fill-rule="evenodd"/><path d="M23.53,7.07h-.24c-1.74-.07-1.77,0-2-.36s-.29-.6-.45-.89-.24-.4-.37-.59a.53.53,0,0,0-.89,0c-.13.19-.25.39-.37.59s-.31.59-.46.89.35.27-2,.36h-.23a.49.49,0,0,0-.47.53,1.57,1.57,0,0,0,.62.94A9.73,9.73,0,0,0,18,9.42a11.29,11.29,0,0,0-.71,1.73.51.51,0,0,0,.17.53,1.23,1.23,0,0,0,1.06.13,5.15,5.15,0,0,0,1.45-.9,5.41,5.41,0,0,0,1.55.88,1.22,1.22,0,0,0,1.08-.09.52.52,0,0,0,.18-.56,12,12,0,0,0-.71-1.72,10.51,10.51,0,0,0,1.3-.87,1.62,1.62,0,0,0,.62-1A.49.49,0,0,0,23.53,7.07ZM21.45,8.8a1,1,0,0,0-.29.29.57.57,0,0,0,0,.27,3.1,3.1,0,0,0,.16.39,7.31,7.31,0,0,1,.84,1.37.86.86,0,0,1-.63-.08,5.46,5.46,0,0,1-1.28-.76v0a.38.38,0,0,0-.4,0,6.26,6.26,0,0,1-1.26.81,1.1,1.1,0,0,1-.38.09,5.7,5.7,0,0,0,.56-1.46,1.73,1.73,0,0,0,.16-.38.43.43,0,0,0,0-.26.79.79,0,0,0-.28-.3c-.21-.14-.67-.43-1.07-.75A8.52,8.52,0,0,0,19,8a1,1,0,0,0,.43-.24,2.36,2.36,0,0,0,.33-.55L20,6.61l.31.57a2.18,2.18,0,0,0,.35.54.77.77,0,0,0,.42.24,8.26,8.26,0,0,0,1.4.09C22.13,8.36,21.66,8.65,21.45,8.8Z" fill="currentColor" fill-rule="evenodd"/><path d="M1.23,11.15a.51.51,0,0,0,.18.53,1.2,1.2,0,0,0,1.05.13,5.07,5.07,0,0,0,1.46-.9,5.34,5.34,0,0,0,1.54.88,1.21,1.21,0,0,0,1.08-.09.49.49,0,0,0,.18-.56A12,12,0,0,0,6,9.42a9.81,9.81,0,0,0,1.3-.87,1.62,1.62,0,0,0,.62-1,.49.49,0,0,0-.47-.53H7.23c-1.74-.07-1.78,0-2-.36s-.3-.6-.46-.89-.24-.4-.37-.59a.53.53,0,0,0-.89,0c-.13.19-.25.39-.37.59s-.3.59-.45.89.35.27-2,.36H.47A.49.49,0,0,0,0,7.6a1.57,1.57,0,0,0,.62.94,9.73,9.73,0,0,0,1.32.88A11.29,11.29,0,0,0,1.23,11.15Zm.25-3.1A8.6,8.6,0,0,0,2.89,8a.93.93,0,0,0,.42-.24,2.81,2.81,0,0,0,.34-.55L4,6.61l.32.57a2.15,2.15,0,0,0,.34.54A.8.8,0,0,0,5.05,8a8.39,8.39,0,0,0,1.41.09c-.4.31-.86.6-1.08.75a.91.91,0,0,0-.28.29.46.46,0,0,0,0,.27,3,3,0,0,0,.17.39,7.87,7.87,0,0,1,.83,1.37A.86.86,0,0,1,5.44,11a5.46,5.46,0,0,1-1.28-.76v0a.37.37,0,0,0-.39,0,6.69,6.69,0,0,1-1.27.81,1.05,1.05,0,0,1-.38.09c.29-.28.47-1.25.57-1.46a4,4,0,0,0,.16-.38.42.42,0,0,0,0-.26.82.82,0,0,0-.27-.3A11.21,11.21,0,0,1,1.48,8.05Z" fill="currentColor" fill-rule="evenodd"/><path d="M15.18,20.48a3.06,3.06,0,0,0-.64-.6,4,4,0,0,0-.8-.42,2.67,2.67,0,0,0,.56-2.76,3,3,0,0,0-3.66-1.87,2.94,2.94,0,0,0-1.21,4.8c-.17.08-.34.14-.5.23a3.63,3.63,0,0,0-.64.52,3.68,3.68,0,0,0-.3.39.31.31,0,0,0,0-.23,3.39,3.39,0,0,0-.44-1.26,2.6,2.6,0,0,0-.36-.46,2.44,2.44,0,0,0-.92-.57A2.4,2.4,0,0,0,7,15.66a2.84,2.84,0,0,0-2.44-1.95,2.11,2.11,0,0,0-1.4.43,2.77,2.77,0,0,0-1,1.73A2,2,0,0,0,2.9,18a3.87,3.87,0,0,0-.8.35,2.42,2.42,0,0,0-.42.36,2.31,2.31,0,0,0-.32.45A3.62,3.62,0,0,0,1,20.4a.32.32,0,0,0,.21.4.31.31,0,0,0,.4-.2,4.07,4.07,0,0,1,.51-.72c.08-.09.18-.18.27-.27l.41-.43a7.57,7.57,0,0,1,.75-.75.36.36,0,0,0,.14-.16l.2,0a.28.28,0,0,0,0-.56c-.91-.1-1.1-.93-.9-1.68a1.51,1.51,0,0,1,1.48-1.27A1.83,1.83,0,0,1,6,16a1.55,1.55,0,0,1-.51,1.9,1.19,1.19,0,0,1-.46.2,4.3,4.3,0,0,1-.6.08.32.32,0,0,0-.31.33.34.34,0,0,0,.33.31,4.12,4.12,0,0,0,.85-.07,1,1,0,0,0,.16-.06c.24.2.45.4.65.6l.44.43c.1.1.2.18.29.28a3.23,3.23,0,0,1,.53.74.31.31,0,0,0,.39.21A.26.26,0,0,0,8,20.82c0,.07-.12.14-.17.22a5.19,5.19,0,0,0-.64,1.76.31.31,0,0,0,.21.39.32.32,0,0,0,.4-.21,5.42,5.42,0,0,1,.85-1.36c.14-.16.3-.32.45-.48l.49-.45a7,7,0,0,1,.79-.58l.15,0A7.53,7.53,0,0,0,13.05,20a6.2,6.2,0,0,1,.84.69c.17.16.32.32.46.48a4,4,0,0,1,.38.54,7.64,7.64,0,0,1,.7,1.55.32.32,0,0,0,.63-.14,6.93,6.93,0,0,0-.43-1.87A3.11,3.11,0,0,0,15.18,20.48ZM10,19.12a2,2,0,0,1-.33-1.9,1.85,1.85,0,0,1,1.24-1.35A2,2,0,0,1,13.45,17C14.46,19.48,11,20.21,10,19.12Z" fill="currentColor" fill-rule="evenodd"/><path d="M21.54,18.8a2.25,2.25,0,0,0-.45-.35,3.76,3.76,0,0,0-.46-.2,2.4,2.4,0,0,0,.66-2.59,2.84,2.84,0,0,0-2.44-1.95,2.11,2.11,0,0,0-1.4.43,2.77,2.77,0,0,0-1,1.73A2,2,0,0,0,17.22,18a3.14,3.14,0,0,0-.79.34,2.06,2.06,0,0,0-.42.35,2.66,2.66,0,0,0-.33.44,3.39,3.39,0,0,0-.39,1.2.31.31,0,0,0,.2.4.31.31,0,0,0,.4-.2,3.66,3.66,0,0,1,.51-.71l.27-.27.41-.42a7.53,7.53,0,0,1,.75-.74.25.25,0,0,0,.14-.16l.2,0a.28.28,0,0,0,0-.56c-.91-.1-1.1-.93-.9-1.68a1.51,1.51,0,0,1,1.48-1.27A1.83,1.83,0,0,1,20.36,16a1.55,1.55,0,0,1-.51,1.9,1.19,1.19,0,0,1-.46.2,4.3,4.3,0,0,1-.6.08.31.31,0,0,0-.3.33.32.32,0,0,0,.32.31,4.12,4.12,0,0,0,.85-.07.76.76,0,0,0,.16-.06c.24.19.45.4.65.59l.44.42c.1.1.2.18.29.28a3.17,3.17,0,0,1,.53.73.33.33,0,0,0,.4.21.33.33,0,0,0,.21-.4,3.46,3.46,0,0,0-.44-1.25A2.28,2.28,0,0,0,21.54,18.8Z" fill="currentColor" fill-rule="evenodd"/></g></svg>