<svg xmlns="http://www.w3.org/2000/svg" viewBox="0 0 24 24" class="h-6 w-6 mt-1 drop-shadow-yellow"><g><path d="M19.4,12.79a3.54,3.54,0,0,0-.08-.45,2.14,2.14,0,0,0-.35-.73,1.75,1.75,0,0,0-.62-.56,1.94,1.94,0,0,0-1.15-.2,6.36,6.36,0,0,0-1.45.41,4,4,0,0,0-.38,1.09,11.81,11.81,0,0,0-.3,2.9,2,2,0,0,0,.27,1,2,2,0,0,0,1.54,1,2.11,2.11,0,0,0,1.75-.57,2.91,2.91,0,0,0,.66-1.35A10.88,10.88,0,0,0,19.4,12.79Zm-1,.58a8.89,8.89,0,0,1-.2,1.69,1.84,1.84,0,0,1-.37.81,1,1,0,0,1-.8.25.92.92,0,0,1-.76-.37A1.82,1.82,0,0,1,16,15a6.67,6.67,0,0,1,0-1c0-.42.05-.86.08-1.29,0-.28.06-.56.11-.83a.17.17,0,0,0,0-.07,4.75,4.75,0,0,1,1-.19,1.23,1.23,0,0,1,.69.2.89.89,0,0,1,.29.32,1.49,1.49,0,0,1,.15.45Z" fill="currentColor"/><path d="M24,12.5a14.65,14.65,0,0,0-.21-2.45c-.07-.41-.14-.83-.24-1.25A6.32,6.32,0,0,0,23.26,8a2.66,2.66,0,0,0-.26-.6A1.11,1.11,0,0,0,22.7,7a2.28,2.28,0,0,0-.83-.29,8.27,8.27,0,0,0-1.08-.06L18,6.73,18,5.5a6.63,6.63,0,0,0,0-.9c0-.44-.1-.87-.15-1.31a5.48,5.48,0,0,0-.2-1.19,1.47,1.47,0,0,0-.41-.58,1.44,1.44,0,0,0-.64-.29,4.77,4.77,0,0,0-1.2,0l-2.85.05c-1,0-2,0-3,.07-.66.05-1.32.13-2,.23a6.69,6.69,0,0,0-1.38.29,1.34,1.34,0,0,0-.66.45,1,1,0,0,0-.22.56,6,6,0,0,0,.06.88l.14,2c0,.32,0,.66,0,1,0,0,0,.06,0,.09-.44,0-.88.08-1.32.14a9.22,9.22,0,0,0-2.31.59.35.35,0,0,0-.22.29.3.3,0,0,0-.11-.14.29.29,0,0,0-.42.07,2.22,2.22,0,0,0-.35.83A11,11,0,0,0,.64,9.86L.18,13A14.74,14.74,0,0,0,0,14.72c0,.59,0,1.18,0,1.76A22.21,22.21,0,0,0,.2,18.9a10.85,10.85,0,0,0,.35,1.62,7.49,7.49,0,0,0,.27.9,1.42,1.42,0,0,0,.28.46,1.07,1.07,0,0,0,.48.29,2.71,2.71,0,0,0,.61.11l1.87.09c.68.08,1.36.12,2,.16l3,.1,3.76.17c1.22,0,2.46,0,3.7-.07s2.47-.16,3.69-.3l1.84-.18c.18,0,.43,0,.64-.06A1.16,1.16,0,0,0,23.2,22a1.29,1.29,0,0,0,.47-.59,2.86,2.86,0,0,0,.15-.74C24,18.64,24,20.12,24,12.5ZM6.26,2.93c.08-.1.25-.12.41-.16a6.37,6.37,0,0,1,1-.12c.64-.07,1.28-.1,1.91-.13,1,0,1.92-.06,2.89,0,.6,0,1.18,0,1.77,0,.4,0,.8-.06,1.2-.11.21,0,.47-.08.71-.09a.63.63,0,0,1,.41.06.59.59,0,0,1,.18.28,5.55,5.55,0,0,1,.15.86c0,.12,0,.22.06.34-1.47,0-2.95-.07-4.42,0-1,0-2.08.15-3.12.23L7,4.31l-.72.12V3.78c0-.17,0-.38,0-.59A.38.38,0,0,1,6.26,2.93Zm0,2.88V5.09h.08c.24,0,.49,0,.72,0h2.5c1-.06,2.07-.08,3.11-.16,1.5-.11,3-.29,4.49-.42,0,.08,0,.15,0,.22a7.34,7.34,0,0,1,.08.82c0,.38,0,.74,0,1.11,0,0,0,.08,0,.12-1.58,0-3.16-.08-4.74-.07s-3.18,0-4.78.11l-1.52.07a.67.67,0,0,1,0-.2C6.18,6.37,6.22,6.08,6.22,5.81ZM22.83,13c-.3,0-.61,0-.85,0-.41,0-.81,0-1.21,0a5.68,5.68,0,0,0-.84.17.53.53,0,0,0,0,.94c.21,0,.41,0,.62,0a6.79,6.79,0,0,0,.9,0c.2,0,.39-.07.58-.1s.48-.13.73-.18h0c-.05,2.84.07,3.68-.13,6.76l-.11.5-.56,0-1.86.19c-1.19.14-2.4.24-3.61.3s-2.44.1-3.63.1l-3.74-.1c-1.18,0-2.35,0-3.52-.06-.5,0-1-.05-1.49-.09l-1.88-.05-.52-.11A.68.68,0,0,1,1.59,21c-.1-.24-.15-.51-.22-.72A10.61,10.61,0,0,1,1,18.78C.9,18,.84,17.21.8,16.45c0-.57,0-1.14,0-1.71,0-.13,0-.27,0-.4.38,0,.76.14,1.15.18a2.68,2.68,0,0,0,.4,0l.88-.07.87-.15.39-.09c.3-.11.47-.69,0-.83-.19,0-.27,0-.44,0a7,7,0,0,0-.91-.05c-.3,0-.61.05-.91.08l-1.4.24c0-.2,0-.41.05-.61l.41-3.1c0-.34.05-.76.13-1.14a1.73,1.73,0,0,1,.24-.61A.32.32,0,0,0,1.71,8v0a.34.34,0,0,0,.44.2,8.54,8.54,0,0,1,2.15-.51,33.75,33.75,0,0,1,3.42-.19c1.59,0,3.17-.06,4.75,0s3.16.08,4.75.15l3.54,0a6,6,0,0,1,.93,0,1.15,1.15,0,0,1,.43.15l.15.39c.08.24.14.49.2.74.08.4.14.8.21,1.2a14.59,14.59,0,0,1,.15,2.27C22.84,12.66,22.83,12.82,22.83,13Z" fill="currentColor"/><path d="M11.41,13.08c-.78,0-1.55.16-2.32.25-.33.09-.3.6,0,.75.61.07,1.21.12,1.83.15.41,0,.82,0,1.24,0l1.23-.06,1.4-.07c.3,0,.33-.55-.05-.69l-1.33-.26A19.47,19.47,0,0,0,11.41,13.08Z" fill="currentColor"/><path d="M8.66,12a1,1,0,0,0-.45-.73,1.1,1.1,0,0,0-.53-.16,3,3,0,0,0-.61,0l-1.7.25a.34.34,0,0,0-.33.35c0,.49-.31,2.07-.3,3.47a2.14,2.14,0,0,0,.27,1,1.12,1.12,0,0,0,.38.4,2.05,2.05,0,0,0,.56.26,2.57,2.57,0,0,0,1.48,0,1.84,1.84,0,0,0,.91-.63A2.65,2.65,0,0,0,8.81,15,25.4,25.4,0,0,0,8.66,12Zm-1,2.82a1.4,1.4,0,0,1-.26.73.69.69,0,0,1-.45.27,1.56,1.56,0,0,1-.68,0l-.38-.13a1.3,1.3,0,0,1-.2-.55A7.39,7.39,0,0,1,5.64,14l0-1.91L7.13,12h.39a.32.32,0,0,1,.2.06l0,1.25A8,8,0,0,1,7.67,14.84Z" fill="currentColor"/></g></svg>