<svg xmlns="http://www.w3.org/2000/svg" viewBox="0 0 24 24" class="h-6 w-6 mt-1 drop-shadow-yellow"><g><path d="M19.92,12.42c-1.63-.24-9.62.12-10.3.12-.9,0-.8.28-1-.51A4.47,4.47,0,0,0,8,10c-.81-.81-6.18,0-6.84,1.42-.33.69.39,2.38.61,3.1a51.34,51.34,0,0,0,2.24,7,.3.3,0,0,0,.55-.25,51,51,0,0,1-2-6.92,9.93,9.93,0,0,1-.58-2.51c.32-.64,3.18-1.11,4-1.1l1.39.06c.24.35.18,2,.78,2.61s4.26.06,8.86.18c.2,0,3.24-.21,3.63.26s-.28,2.94-.43,3.49c-.34,1.28-.74,4.11-1.36,5.18-.16.28-.13.46-1.83.6-2.21.19-3.71-.06-8.21,0L6.66,23c-.55,0-1.09-.26-1.18.21-.13.73,1.16.4,8.91.8a15.31,15.31,0,0,0,4.43-.31c1.36-.5,1.77-4.14,2.33-6.1.34-1.16,1-3.57.27-4.5A2.47,2.47,0,0,0,19.92,12.42Z" fill="currentColor" fill-rule="evenodd"/><path d="M5.59,8.37c.13.43.51.4.62.15.21-.46-.14-1.38-.14-1.4S5.73,3,6.08,1.91c.26-.79,2.8-.77,3.63-.78,1.24,0,8.28.26,8.84,1.06.16.24.08.61,0,1a46.93,46.93,0,0,1-1.18,7.14.34.34,0,1,0,.66.15,49.67,49.67,0,0,0,1.48-7.19,2.23,2.23,0,0,0-.16-1.7C18.8.7,17.17.61,16.16.45,13.57.08,8.64-.4,6.2.58,5.14,1,5.12,1.78,5.1,2.84A38.1,38.1,0,0,0,5.59,8.37Z" fill="currentColor" fill-rule="evenodd"/><path d="M22.82,5.33A3.23,3.23,0,0,0,21,4.1a.3.3,0,0,0-.25.54c1.65.94,1.18,1.27.92,1.84a28.47,28.47,0,0,1-1.79,4.13.34.34,0,0,0,.59.34C20.88,10.19,23.53,6.7,22.82,5.33Z" fill="currentColor" fill-rule="evenodd"/><path d="M16.54,5.27a.4.4,0,0,0,.09-.69c-.18-.17-.62-.22-1.91-.4a17.08,17.08,0,0,0-4.2-.06c-1.64,0-1.72,0-2,.14a.29.29,0,0,0,.17.49l.57.08a20.23,20.23,0,0,0,5.4.3C14.73,5.14,16.46,5.31,16.54,5.27Z" fill="currentColor" fill-rule="evenodd"/><path d="M16.07,7.83a4.6,4.6,0,0,0-1.91-.45,14.79,14.79,0,0,0-3.06-.19C10,7.27,8.19,7,8.42,7.72a.3.3,0,0,0,.38.19c.54-.13.74.38,5.29.44a4.57,4.57,0,0,1,1.62.05A.34.34,0,1,0,16.07,7.83Z" fill="currentColor" fill-rule="evenodd"/><path d="M1.93,6.05a22.26,22.26,0,0,1,.76,2.12.3.3,0,0,0,.6-.06A18,18,0,0,0,2.8,5c-.13-.61-.53-1,1.53-1.71a.34.34,0,0,0-.16-.66C1.48,3,1.19,4,1.93,6.05Z" fill="currentColor" fill-rule="evenodd"/></g></svg>