<svg xmlns="http://www.w3.org/2000/svg" viewBox="0 0 24 24" class="h-6 w-6 mt-1 drop-shadow-yellow"><path d="M24,12c-.09-.23-.44-.62-.81-1.28s-.54-1.13-.84-1.77c-.08-.17-.27-.56-.44-.85a1.63,1.63,0,0,0-.34-.42.68.68,0,0,0-.41-.09,6.42,6.42,0,0,0-.68.13L19,8a8.49,8.49,0,0,0-1.41.39,1.55,1.55,0,0,0-.66.49.5.5,0,0,0-.05.45c0,.13.2.45.21.48l.61,1.57.85,2c-2.17.6-4.35,1.18-6.48,1.9-.29-.56-.59-1.1-.9-1.64C9.91,11.49,8.51,9.43,7.32,7.22L5.9,4.34c-.09-.17-.21-.61-.35-.87a1,1,0,0,0-.25-.32.72.72,0,0,0-.53,0,6.62,6.62,0,0,0-1,.35c-.8.27-1.61.43-2.42.67a10,10,0,0,0-1,.36s-.47.22-.3.6c.69,1.47,1.3,3,2,4.45s1.42,2.93,2.14,4.37l1.3,2.56c.14.26.25.56.41.8a1.52,1.52,0,0,0,.4.4,1.46,1.46,0,0,0,.78.23,5,5,0,0,0,1.31-.21c.55-.14,1.1-.3,1.64-.47s1-.35,1.48-.54l1.24,2.58c.13.27.22.75.36,1.07a1.75,1.75,0,0,0,.25.39.72.72,0,0,0,.55.22,7.11,7.11,0,0,0,1.4-.35c.87-.27,1.73-.52,2.58-.81.58-.19,1.15-.41,1.72-.66l1-.47a1.35,1.35,0,0,0,.44-.15.57.57,0,0,0,.25-.49,3,3,0,0,0-.13-.81,15.53,15.53,0,0,0-.57-1.53l-.78-1.78c.52-.17,1.05-.33,1.57-.52.81-.29,1.62-.6,2.42-.94A.34.34,0,0,0,24,12ZM9.67,16.13c-.52.17-1.05.32-1.57.45a7.39,7.39,0,0,1-.76.17.68.68,0,0,1-.43,0,.52.52,0,0,1-.15-.18c-.12-.2-.21-.43-.32-.63l-1.37-2.5C4.13,11.74,3.19,10,2.29,8.31,1.72,7.22,1.18,6.11.66,5a9.24,9.24,0,0,1,.89-.29C2.37,4.5,3.2,4.36,4,4.1c.1,0,.72,0,.91-.21l.29.77,1.34,3C7.7,9.87,9,12,10.24,14.19c.26.48.51,1,.76,1.47C10.56,15.83,10.11,16,9.67,16.13Zm10-.11c.13.36.32.8.46,1.25,0,.12.07.25.09.37l-1,.45a17,17,0,0,1-1.63.62c-.84.28-1.7.52-2.56.78a6.41,6.41,0,0,1-.81.36l-.39-1.09-1.21-2.48c2.07-.78,4.2-1.41,6.32-2.08Zm1.51-3.38c-.55.18-1.1.33-1.65.49L18.55,11,17.9,9.47l-.11-.24a2,2,0,0,1,.29-.14c.4-.15.86-.23,1.14-.31l1.38-.3a4.87,4.87,0,0,1,.57-.08l.49.85c.32.65.56,1.16.9,1.79.15.27.33.57.54.91C22.45,12.19,21.8,12.43,21.13,12.64Z" fill="currentColor" fill-rule="evenodd"/></svg>