<svg xmlns="http://www.w3.org/2000/svg" viewBox="0 0 24 24" class="h-6 w-6 mt-1 drop-shadow-yellow"><g><path d="M7.62,8.13a6.1,6.1,0,0,1,2-1.44,5.5,5.5,0,0,1,2.31-.58,5.62,5.62,0,0,1,2.37.44,8.28,8.28,0,0,1,2.21,1.22.34.34,0,1,0,.47-.5,8.77,8.77,0,0,0-2.81-1.85A6,6,0,0,0,11.87,5a6.25,6.25,0,0,0-2.71.89,6.4,6.4,0,0,0-2,1.93.29.29,0,0,0,.07.42A.3.3,0,0,0,7.62,8.13Z" fill="currentColor" fill-rule="evenodd"/><path d="M22.39,5a10.16,10.16,0,0,0-4.23-3.44A15,15,0,0,0,12.91,0,11.81,11.81,0,0,0,9.67.33a15.72,15.72,0,0,0-3,1.1A12.61,12.61,0,0,0,1.6,5.35a.3.3,0,1,0,.52.31A12.13,12.13,0,0,1,7.05,2.34a17.08,17.08,0,0,1,2.87-.89,11.69,11.69,0,0,1,2.94-.29,14,14,0,0,1,4.9,1.23,9.44,9.44,0,0,1,4,2.93.34.34,0,0,0,.47.11A.33.33,0,0,0,22.39,5Z" fill="currentColor" fill-rule="evenodd"/><path d="M18.05,15.51a1.16,1.16,0,0,0-.66,0,9.76,9.76,0,0,0-1.09.28,4.32,4.32,0,0,0-.11-2.34,4.45,4.45,0,0,0-2.08-2.52,6,6,0,0,0-1.29-.43,1,1,0,0,0-.65,0,.77.77,0,0,0-.4.57c-.09.38-.08,1.25-.28,2A3.47,3.47,0,0,1,11,14.12a2.83,2.83,0,0,1-.82.8.27.27,0,0,1-.33,0c-.37-.26-.68-.75-1.12-1a3.2,3.2,0,0,0-.94-.35.66.66,0,0,0-.61.2,1.41,1.41,0,0,0-.22.46,6.59,6.59,0,0,1-.26,1.08c-.31.54-.7.91-1,1.38a3.21,3.21,0,0,0-.41.73,3.14,3.14,0,0,0,.11,2.62,7.11,7.11,0,0,0,2.55,2.7h0a6.69,6.69,0,0,0,1.5.64,16.39,16.39,0,0,0,2.29.55,7.77,7.77,0,0,0,4.14-.72A6.11,6.11,0,0,0,19,20.36a5.08,5.08,0,0,0,.17-3A2.94,2.94,0,0,0,18.05,15.51ZM18.1,20a5.1,5.1,0,0,1-2.64,2.43,6.87,6.87,0,0,1-3.66.76,15.86,15.86,0,0,1-2.19-.48,5.66,5.66,0,0,1-1.34-.52h0a6.35,6.35,0,0,1-2.21-2.45,2.37,2.37,0,0,1,0-2,3.09,3.09,0,0,1,.34-.56c.35-.48.76-.86,1.1-1.41a1.58,1.58,0,0,0,.16-.39c.07-.22.1-.51.16-.73.15.07.39.08.44.11a3.46,3.46,0,0,1,.61.6,2.21,2.21,0,0,0,.7.55,1.24,1.24,0,0,0,1.15-.1,3.88,3.88,0,0,0,1.18-1.08,4.75,4.75,0,0,0,.71-1.4A8.38,8.38,0,0,0,13,11.61a4.32,4.32,0,0,1,.53.28,3.3,3.3,0,0,1,1.39,4.3s0,.86.63.81c.21,0,.74-.08.8-.1.83-.24,1.49-1.19,1.87,1.14A3.85,3.85,0,0,1,18.1,20Z" fill="currentColor" fill-rule="evenodd"/><path d="M13.2,18.66a2.26,2.26,0,0,0-.56-.17c-.36-.06-.74,0-1.09-.11a1.91,1.91,0,0,1-.9-.38,1.53,1.53,0,0,1-.53-.82.3.3,0,1,0-.59.11s0,.07,0,.1l0,0a1.71,1.71,0,0,0-.17.33,5.57,5.57,0,0,0-.14.66,3.1,3.1,0,0,0,.13,1.51,3.17,3.17,0,0,0,.85,1.3A3.13,3.13,0,0,0,12,22a2.4,2.4,0,0,0,2-.76,1.35,1.35,0,0,0,.34-1.29A2,2,0,0,0,13.2,18.66Zm-.07,1.77a1.36,1.36,0,0,1-1.06.4,2.14,2.14,0,0,1-1.23-.38,2.18,2.18,0,0,1-.68-.85,2.28,2.28,0,0,1-.2-1.09c0-.05,0-.11,0-.18a1.63,1.63,0,0,0,.17.2,2.72,2.72,0,0,0,1.21.7c.3.09.62.13.93.2a2.18,2.18,0,0,1,.45.16,1,1,0,0,1,.45.49A.31.31,0,0,1,13.13,20.43Z" fill="currentColor" fill-rule="evenodd"/></g></svg>