<svg xmlns="http://www.w3.org/2000/svg" viewBox="0 0 24 24" class="h-6 w-6 mt-1 drop-shadow-yellow"><title>piracy-treasure-map</title><g><path d="M23.68,2.31a2.21,2.21,0,0,0-2-1.59.58.58,0,0,0-.43-.2c-2.39,0-6.39,0-9.42,0A35.58,35.58,0,0,0,7.62.69,4.85,4.85,0,0,0,4.1,5c-.36,2.62.5,5.86.59,8.11a17,17,0,0,1,0,1.75c0,.89-.14,1.79-.19,2.68a.09.09,0,0,0,0,.05,2.44,2.44,0,0,0-.55.12c-.63.21-1.13.75-1.81.85a.76.76,0,0,1-.46-.12,4.12,4.12,0,0,0-.58-.23,1.43,1.43,0,0,0-.51-.07.58.58,0,0,0-.41.17.63.63,0,0,0-.16.42,8.09,8.09,0,0,0,.38,2.4,3,3,0,0,0,1,1.48,4.44,4.44,0,0,0,2,.79,16.63,16.63,0,0,0,3,0l9.23-.24a.5.5,0,0,0,.2-.08,1.83,1.83,0,0,0,.78-.08,2.08,2.08,0,0,0,1.06-.91.28.28,0,0,0,0-.18.33.33,0,0,0,.22-.11,4.44,4.44,0,0,0,.92-1.74,11.79,11.79,0,0,0,.33-2.84,6.56,6.56,0,0,0,0-1.18,1.39,1.39,0,0,0-.25-.61,3.36,3.36,0,0,0-.79-.73,18.12,18.12,0,0,1-1.87-1.12l-.15-.14c.05,0,.08-.07.1-.07.53-.25,1.41-.36,2.09-.62a2.42,2.42,0,0,0,1-.66,1.12,1.12,0,0,0,.2-.48,5.66,5.66,0,0,0,.08-.75,10.1,10.1,0,0,0,0-1.23c0-.59-.1-1.18-.17-1.77-.05-.32-.08-.63-.1-.94.34.06.69.12,1,.16s.41,0,.62,0l.62,0c.5-.06,1-.15,1.46-.25h0a.32.32,0,0,0,.34-.18A5.41,5.41,0,0,0,24,4.08,4.92,4.92,0,0,0,23.68,2.31ZM6.4,22.48a14.77,14.77,0,0,1-2.8-.11,3.36,3.36,0,0,1-1.52-.63,2,2,0,0,1-.62-1,5.19,5.19,0,0,1-.26-1.23,2.29,2.29,0,0,0,.56.18,1.35,1.35,0,0,0,.53,0,2.72,2.72,0,0,0,.65-.19c.58-.26,1.05-.78,1.72-.8s1.11.46,1.68.66a2.9,2.9,0,0,0,.65.14c.45,0,.9,0,1.35,0,1.71-.08,3.42-.39,5.14-.31.22,0,.21.25.23.49a13.26,13.26,0,0,0,.17,1.87,1.68,1.68,0,0,0,.46.85l.18.15ZM18.56,11.54a1.39,1.39,0,0,1-.57.38c-.69.29-1.58.43-2.12.7a3.25,3.25,0,0,0-.49.27.61.61,0,0,0-.25.29.6.6,0,0,0,.07.51,2.75,2.75,0,0,0,.56.57,19.68,19.68,0,0,0,2,1.13,2.68,2.68,0,0,1,.63.55.69.69,0,0,1,.12.39,6.87,6.87,0,0,1,0,.92,11,11,0,0,1-.23,2.68,3.89,3.89,0,0,1-.76,1.52.25.25,0,0,0-.06.18.34.34,0,0,0-.31.14,1.34,1.34,0,0,1-.71.58,1.32,1.32,0,0,1-.9-.08,2.55,2.55,0,0,1-.33-.17,2.26,2.26,0,0,1-.29-.23,1.65,1.65,0,0,1-.29-1.15,7.17,7.17,0,0,0-.12-1.63,1,1,0,0,0-.93-.76,12.07,12.07,0,0,0-1.34,0c-1.72,0-3.43.28-5.14.16a1.76,1.76,0,0,1-.73-.28,6,6,0,0,0-1-.48l-.16,0a.06.06,0,0,0,0,0c.09-1.05.22-2.09.28-3.13q0-.69,0-1.38c0-2.2-.84-5.39-.43-7.94A3.93,3.93,0,0,1,7.92,1.69c.19-.05,1.17-.05,2.54-.06,2.55,0,6.38,0,9.19,0a5,5,0,0,0-1,1.51A9.25,9.25,0,0,0,18.41,8c.08.56.16,1.12.2,1.69a7.93,7.93,0,0,1,0,1.09Zm3-5.53a6.54,6.54,0,0,0-1,0,8,8,0,0,0-1.28.22,7.3,7.3,0,0,1,.2-1.95,4.42,4.42,0,0,1,2-2.69.53.53,0,0,0,.14-.12,1.68,1.68,0,0,1,.95,1.24,7.35,7.35,0,0,1,.29,1.44,6.26,6.26,0,0,1,0,2C22.45,6.11,22,6,21.59,6Z" fill="currentColor" fill-rule="evenodd"/><path d="M10.05,10.9l-.13-.11c.14-.33.27-.65.42-1a.33.33,0,0,0-.12-.47.34.34,0,0,0-.47.11l-.62.76C8.75,10,8.37,9.87,8,9.7a.31.31,0,0,0-.34.51c.3.29.56.6.87.89a4.52,4.52,0,0,0-.25.49A12.86,12.86,0,0,0,7.81,13a.31.31,0,0,0,.55.27c.28-.38.58-.72.86-1.1l.21-.35c.35.22.71.4,1.07.61a.35.35,0,0,0,.49-.05.34.34,0,0,0-.05-.48C10.64,11.53,10.37,11.21,10.05,10.9Z" fill="currentColor" fill-rule="evenodd"/><path d="M8.85,8.21s.25.07.39-1c0-.12,0-.23,0-.34,0-.86,0-.92-.19-1-.45-.23-.85.74-.89.83A1.37,1.37,0,0,0,8.09,7a1,1,0,0,0,0,.34S8.47,8.31,8.85,8.21Z" fill="currentColor" fill-rule="evenodd"/><path d="M12.71,4.13a.34.34,0,0,0-.21-.44,2,2,0,0,0-.95-.3,1.25,1.25,0,0,0-.43,0,1.37,1.37,0,0,0-.38.15c-.27.16-1,.75-.77,1.05.06.1,0,.21,1.25,0l.41-.11C12.48,4.27,12.61,4.43,12.71,4.13Z" fill="currentColor" fill-rule="evenodd"/><path d="M15.1,6a1.09,1.09,0,0,0-.17-.34c-.15-.19-.79-.87-1.08-.65-.09.07-.23.09.11,1.22,0,.14.11.27.16.4.37.86.33,1,.61,1,.46,0,.47-.94.46-1.24A1.24,1.24,0,0,0,15.1,6Z" fill="currentColor" fill-rule="evenodd"/><path d="M13.47,10.75c.07.06.28.28,1-.46a.83.83,0,0,0,.19-.23.81.81,0,0,0,.11-.27s.17-1-.18-1.09c-.08,0-.18-.14-.81.6a.8.8,0,0,0-.13.19C13.13,10.66,13.45,10.74,13.47,10.75Z" fill="currentColor" fill-rule="evenodd"/><path d="M12.82,12.31c-.36-.12-.8.83-.81.85a.78.78,0,0,0-.07.33,1.35,1.35,0,0,0,0,.35s.27,1.16.78,1c.23-.08.18-.15.31-1a2.47,2.47,0,0,0,0-.38C13.1,12.28,12.84,12.32,12.82,12.31Z" fill="currentColor" fill-rule="evenodd"/><path d="M14.21,16.06c-.82-.5-.91-.36-1-.3-.26.21.19,1,.19,1.07a1.3,1.3,0,0,0,.19.22,1.88,1.88,0,0,0,.23.16c.95.47,1.07.19,1.12.12s.29-.2-.56-1.13A.85.85,0,0,0,14.21,16.06Z" fill="currentColor" fill-rule="evenodd"/></g></svg>