<svg xmlns="http://www.w3.org/2000/svg" viewBox="0 0 24 24" class="h-6 w-6 mt-1 drop-shadow-yellow"><g transform="matrix(1,0,0,1,0,0)"><path d="M20.447 1.269c.413.1.766.673 1.11 1.294a16.313 16.313 0 0 1 1.163 2.792 6.517 6.517 0 0 1-.13 2.991c-.16.326-.473.468-1.014.433a4.561 4.561 0 0 1-.886-.124A2.114 2.114 0 0 1 19.026 5.9c1.43-.019 2.578-.043 3.214-.06a.337.337 0 0 0 0-.673c-.63-.017-1.761-.072-3.171-.135C17.444.507 17.663 1.1 17.578.941a17.064 17.064 0 0 1 2.869.328zm-3.581 7.279a2.068 2.068 0 0 1-1.613-.138 2.188 2.188 0 0 1-1.168-2.471c.284 0 3.019-.012 3.989-.023a2.341 2.341 0 0 1-1.208 2.632zM16.787.937c.036.127.107.25.145.38a12.458 12.458 0 0 0 .938 3.667c-.971-.041-3.535-.128-3.738-.134a13.363 13.363 0 0 0-.77-4.015c.178.001 3.401.018 3.425.102zm-4.668 7.506a2.561 2.561 0 0 1-2.432-.278c-.466-2.432-.4-1.863-.3-2.291.8.022 3.323.06 3.771.063.053.875.25 1.768-1.039 2.506zM11.884.835c1.494-.005.475-.225 1.147 3.985a133.787 133.787 0 0 0-3.093-.048c.024-.045 1.3-2.594 1.3-2.594a4.738 4.738 0 0 0 .646-1.343zm-4.141.794c.47-.615.461-.528.328-.745 3.372-.067 3.1-.067 3.036.037a22.34 22.34 0 0 0-2.474 3.853c-1.213.008-2.359.029-3.371.057C6.27 3.671 7.085 2.49 7.743 1.629zM4.488 5.694c1.1.044 2.415.1 3.835.148.026.323-.01-.195.106 1.52-.287.176-.293.847-.793 1.2a2.761 2.761 0 0 1-2.417.093c-1.019-.477-.903-2.278-.731-2.961zM21.2 9.868c2.145.194 2.671-.928 2.727-3.064l-.174-1.645a16.145 16.145 0 0 0-1.623-3.571A2.811 2.811 0 0 0 20.674.335C17.619-.375 6.159.263 5.126.272a.337.337 0 0 0 0 .673C5.359.947 6.218.924 7.416.9a30.435 30.435 0 0 0-3.595 3.979c-1.321.052-2.238.114-2.479.163a.3.3 0 0 0 .1.585c.219-.031.989-.011 2.108.03.078 2.409.306 1.057-.263 2.814C2.326 9.751-.065 7.579.93 5.479a34.007 34.007 0 0 1 2.93-4.422.3.3 0 0 0-.449-.387c-.33.375-1 1.262-1.642 2.182C-.286 5.783.108 5.534.087 7.339A2.336 2.336 0 0 0 1.75 9.494l.728.106a1.759 1.759 0 0 0 1.571-.709c.995 1.215 3.68 1.4 4.723-.086a3.663 3.663 0 0 0 3.889.6 4.54 4.54 0 0 0 1.039-.848A3.232 3.232 0 0 0 17.309 9.6a3.161 3.161 0 0 0 1.256-1.042A3.439 3.439 0 0 0 20.4 9.733zM5.325 16.164a.336.336 0 0 0 .092.665c1.107-.125.793 4.016-.325 3.727-1.206-.311-1.356-2.473-.59-3.308a.3.3 0 0 0-.41-.427c-1.349 1.137-1.3 4.2.693 4.821 2.971.918 2.915-5.934.54-5.478zm5.858-.102a2.088 2.088 0 0 0-1.029-.17c-1.6 0-2.124.66-2.124 1.881.01.082.415 3.415.4 3.334a.3.3 0 0 0 .59-.058s0-1.9-.007-2.162a2.184 2.184 0 0 0 1.369.12 1.612 1.612 0 0 0 .801-2.945zm-2.158 2.105a2.15 2.15 0 0 1 .212-.967c.062-.1 1.643-.483 1.65.241.006.868-1.025.959-1.862.726zm4.296 2.233c.09-.377 0-.006.186-1.007.719.261 1.776-.117 1.776-.456 0-.4-1.131-.7-1.7-.463.036-.738-.122-1.164.281-1.273.633-.172 1.465.029 1.425-.46a.3.3 0 0 0-.321-.27c-.925 0-2.124-.42-2.4 1.122l-.148 1.442c-.034.5-.4 1.879.283 2.291.55.323 1.2-.005 1.654-.075.058-.009.56-.02.76-.04a.436.436 0 0 0 .409-.355c-.004-.484-2.126-.496-2.205-.456zm6.499-3.508c-.007.286-.139 1.263-.274 2.141a5.984 5.984 0 0 0-1.309-1.848 3.288 3.288 0 0 0-.68-.619.7.7 0 0 0-.681-.019c-.546.324-.418.58-.164 3.565a4.88 4.88 0 0 0 .037.863c.12.483.583.509.683.2a20.816 20.816 0 0 0 .046-3.162 15.193 15.193 0 0 1 1.836 3.007.545.545 0 0 0 .791 0c.361-.41.39-4.041.388-4.129a.337.337 0 0 0-.673.001z" style="fill-rule: evenodd;"/><path d="M23.037 14.579a6.7 6.7 0 0 0-2.343-.5 14.494 14.494 0 0 0 .515-2.919c-.01-.909-.927-1.091-1.1-.124a19.029 19.029 0 0 0-.133 2.982 118.335 118.335 0 0 0-17.076.09 9.841 9.841 0 0 0-.162-3.449c-.26-1.059-1.053-.765-1.045 0a10.944 10.944 0 0 0 .2 1.723c.015.084.33 1.734.348 1.814-1.771.265-1.927.451-1.891 1.248.064 1.41.471 6.181.99 7.5.06.15.393.394 1.026.518 3.213.637 17.379.846 19.528-.132.853-.389 1.158-2.5 1.292-3.453.128-.914.576-4.698-.149-5.298zm-1.424 7.239c-.081.236-.158.6-.237.5-1.951.794-17.128.889-19.355.238C1.433 20.983.956 15.55.91 15.232c.466-.617 7.738-.624 8.511-.62a108.2 108.2 0 0 1 11.9.611c1.23.179.972.154.995.737a21.4 21.4 0 0 1-.703 5.858z" style="fill: rgb(25, 26, 27); fill-rule: evenodd;"/></g></svg>