<svg xmlns="http://www.w3.org/2000/svg" viewBox="0 0 24 24" class="h-6 w-6 mt-1 drop-shadow-yellow"><g><path d="M23.63,7c-.13-1.3-.08-3.87-.89-4.57-1.91-1.64-6-1.21-8.82-1.34-3.51-.17-7.15.14-10.62.25a.33.33,0,1,0,0,.66c3.45-.05,7-.32,10.56-.1,2.47.15,6.65-.16,8.24,1.25.42.37.42,3,.5,3.94a50.06,50.06,0,0,1,.08,9.79,15.31,15.31,0,0,1-.47,3.27C20,21.65,2.62,22.8,1.56,20.75A24.8,24.8,0,0,1,.9,15.68,49.46,49.46,0,0,1,1.05,7.1h0c2.9-.08,5.22.56,19.3,0a.34.34,0,0,0,0-.67c-2.14,0-10.1-.25-11.58-.23-8.09.08-7.73.49-7.7.16,0-.58.09-1.15.16-1.72a8.77,8.77,0,0,1,.22-2.13C1.79,2.19,1,1.42.76,3,.68,3.53.68,4.28.64,4.59.56,5.17.5,5.75.45,6.33a54,54,0,0,0-.38,9.4,26.1,26.1,0,0,0,.66,5.44c1.43,2.89,17,1.65,21,.44,1.43-.43,1.65-.85,1.83-2.08A47.66,47.66,0,0,0,23.63,7Z" fill="currentColor"/><path d="M4.54,4.64a1,1,0,0,0-.2-1.14.8.8,0,0,0-1,1.2A.78.78,0,0,0,4.54,4.64Z" fill="currentColor"/><path d="M7.18,4.34A1,1,0,0,0,7,3.19a.79.79,0,0,0-1,1.2A.78.78,0,0,0,7.18,4.34Z" fill="currentColor"/><path d="M10.05,4.34a1,1,0,0,0-.21-1.15.79.79,0,0,0-1,1.2A.78.78,0,0,0,10.05,4.34Z" fill="currentColor"/><path d="M6.66,18.61c.44,0,.84-.11,1.28-.1a.3.3,0,0,0,.12-.58c-1.36-.57-1.62-.57-4.29-.18a2.1,2.1,0,0,1,.34-.32c.94-.75,1.68-.36,1.68-.9,0-.17-.08-.27-.24-.33-.75-.3-2.47.53-2.9,1.24s.07,1.34.68,1.79a8.49,8.49,0,0,0,2.26,1.24.34.34,0,0,0,0-.67,17.77,17.77,0,0,1-1.44-1.29C6.65,18.56,6.25,18.62,6.66,18.61Z" fill="currentColor"/><path d="M17.33,19.91a8.49,8.49,0,0,0,2.26-1.24c.61-.45,1-1.11.69-1.79s-2.16-1.54-2.9-1.24c-.17.06-.26.16-.25.32,0,.59,1.06.11,2,1.23-2.8-.41-3-.34-4.28.18A.3.3,0,0,0,15,18c.43,0,.83.09,1.27.1s0-.05,2.51-.1a17.77,17.77,0,0,1-1.44,1.29A.34.34,0,0,0,17.33,19.91Z" fill="currentColor"/><path d="M9.67,16.59c1.23,0,4.89.26,5.36-.68.29-.6-.07-2.45-.2-3.11a12,12,0,0,0,1.84-.3c.63-.35-.28-2.56-.71-3.2s-.85-.86-1.82-1a5.38,5.38,0,0,0-1-.06c-.07,0-.72.17-.72.44a1.23,1.23,0,0,1-.36.81,1.66,1.66,0,0,1-1.41,0,1.2,1.2,0,0,1-.25-.34c-.07-.14,0-.6-.39-.81a3.88,3.88,0,0,0-2.43.13c-.51.18-.73.34-1,1.16S5.49,12.76,6.29,13c.2.06,1.14.29,1.53.35.14,0,.12-.17-.07,1.45,0,.43-.16.71.11,1.11A2.18,2.18,0,0,0,9.67,16.59ZM8.49,15.25c0-.24,0,.7.08-2.37a9,9,0,0,0,.17-1.33.31.31,0,0,0-.51.17,10,10,0,0,0-.24,1c-.15,0-1-.35-1.22-.42a23.89,23.89,0,0,1,.9-2.82,3.42,3.42,0,0,1,2.08-.66,2.13,2.13,0,0,0,.36,1.29,1.82,1.82,0,0,0,1.6.49A1.58,1.58,0,0,0,13.05,8.8a7.92,7.92,0,0,1,1.75.47A9.42,9.42,0,0,1,16,11.89c0,.11-1,.27-1.28.41l-.09-.39c-.3-1.39-.7-.8-.7-.6S14,12,14,12c0,.28.2,1.31.26,2.22.07,1.09.08,1.21-.28,1.29a37.61,37.61,0,0,1-5,.07C8.76,15.55,8.49,15.47,8.49,15.25Z" fill="currentColor"/></g></svg>