<svg xmlns="http://www.w3.org/2000/svg" viewBox="0 0 24 24" class="h-6 w-6 mt-1 drop-shadow-yellow"><g><path d="M24,9.6c-.09-2-1.61-4.82-4.19-6.88A12.25,12.25,0,0,0,12.2,0,12.36,12.36,0,0,0,4.08,2.83a11.33,11.33,0,0,0-4,7.6c-.18,3.06.3,4.85,1.37,6.08s2.94,2,5.48,2.85c.09,0,.12.15.17.3a3.56,3.56,0,0,1,0,1.55,4.44,4.44,0,0,1-.9,2.08.43.43,0,0,0,.36.69,5.55,5.55,0,0,0,.88-.05A8.79,8.79,0,0,0,11,22.77a5.4,5.4,0,0,0,1-.95c.69-.84,1.28-1.9,1.62-2.34.41,0,1.4,0,2.44-.13a13.44,13.44,0,0,0,1.76-.3,8.35,8.35,0,0,0,4.86-3.56A10,10,0,0,0,24,9.6Zm-2,5.48a7.54,7.54,0,0,1-4.35,3.32,11.92,11.92,0,0,1-1.66.31c-1.32.16-2.4-.07-2.73.17s-.92,1.33-1.56,2.16a5.3,5.3,0,0,1-1.09,1.12,7.8,7.8,0,0,1-3.25,1A5.76,5.76,0,0,0,8,20.81a3.61,3.61,0,0,0-.18-1.59,1.12,1.12,0,0,0-.64-.7c-2.33-.85-4-1.46-5-2.66s-1.25-2.68-1-5.36a10.21,10.21,0,0,1,3.7-6.79,11.35,11.35,0,0,1,7.4-2.56,11.21,11.21,0,0,1,6.94,2.4c2.35,1.82,3.81,4.3,3.93,6.1A9.16,9.16,0,0,1,21.94,15.08Z" fill="currentColor"/><path d="M13.64,4.08A4.66,4.66,0,0,0,10.71,4,4.1,4.1,0,0,0,8.36,6a3.15,3.15,0,0,0-.09,3,.31.31,0,0,0,.4.13.3.3,0,0,0,.14-.4A2.46,2.46,0,0,1,9,6.37,3.21,3.21,0,0,1,11,5a3.77,3.77,0,0,1,2.25.17,2.79,2.79,0,0,1,1.59,1.4,3.17,3.17,0,0,1,.26,2.12,2.74,2.74,0,0,1-1.33,1.65c-.38.22-1.06.41-1.6.67a2.31,2.31,0,0,0-.75.52,2,2,0,0,0-.33.62,3.29,3.29,0,0,0-.11.93.34.34,0,0,0,.34.34.33.33,0,0,0,.34-.33,2.57,2.57,0,0,1,.09-.61A1,1,0,0,1,12,12a1.38,1.38,0,0,1,.51-.3c.57-.24,1.3-.4,1.71-.61A3.7,3.7,0,0,0,16.1,9a4.1,4.1,0,0,0-.23-2.87A3.79,3.79,0,0,0,13.64,4.08Z" fill="currentColor"/><path d="M11.05,15.08A1.49,1.49,0,0,0,9.8,16a1.09,1.09,0,0,0,1,1.27,1.49,1.49,0,0,0,1.38-.89C12.36,16,12,15.14,11.05,15.08Z" fill="currentColor"/></g></svg>