<svg xmlns="http://www.w3.org/2000/svg" viewBox="0 0 24 24" class="h-6 w-6 mt-1 drop-shadow-yellow"><g><path d="M22.91.67a27.79,27.79,0,0,0-6-.67C16,0,2.53.39,2.44.39A2.8,2.8,0,0,0,.54.82,1.55,1.55,0,0,0,.2,2.21a.36.36,0,0,0,.71-.09c-.06-.5,0-.76.29-.87a3,3,0,0,1,1.26-.1C13.52,1,18.31.65,22.63,1.77c.25.06,0,2.15,0,2.4,0,2.67.13,6-.51,8.57-.14.55-2.82.11-3.15.11C15.79,13,5.1,13.43,2,13c-.17,0-.83-.31-.94-.1-.23-.41.11-8.66-.1-9.18a.33.33,0,0,0-.64.06,6.58,6.58,0,0,0,0,.76c.12,6.79-.53,8.27.2,9,.29.31,1,.26,1.36.31a50.74,50.74,0,0,0,7.31.33,71.59,71.59,0,0,0,.8,8.62A1.46,1.46,0,0,0,11.22,24a1.61,1.61,0,0,0,1.58-.84,69.47,69.47,0,0,0,1.64-8.93c2.22,0,2.57-.09,4.54-.17.8,0,3.87.77,4.32-1,.69-2.76.52-6,.51-8.86C23.81,3.25,24.3,1,22.91.67ZM13.6,14.88a66.84,66.84,0,0,1-1.91,7.81c0,.12-.26.14-.41.08-.47-.17-1.38-7.65-1.42-8.55,1.94,0,3.7,0,3.8,0S13.65,14.63,13.6,14.88Z" fill="currentColor" fill-rule="evenodd"/><path d="M3.1,10.35a.35.35,0,0,0,.45.32c.25-.09.34-.62.2-2.68,0-.82.1-1.66.21-2.51.7,1.33,2.46,4.09,3,5a.54.54,0,0,0,1-.23C8.1,9,8,8.71,8,7.25,8.08,6.39,8.54,1.8,7.7,3c-.28.29-.21,1.35-.35,2.38A28.33,28.33,0,0,0,7,8.34c-1.1-2-2.74-4.56-2.85-4.69A.65.65,0,0,0,3,4c0,.31,0,.8,0,1A40.65,40.65,0,0,0,3.1,10.35Z" fill="currentColor" fill-rule="evenodd"/><path d="M13.42,4.1a1.56,1.56,0,0,0-.79-.37c-.75-.14-2.06-.71-2.48.28-.08.19-.05,0-.32,3.35,0,.82-.4,2.49.45,3.25a.88.88,0,0,0,.58.23c.09,0,2.45-.33,2.54-.39a.38.38,0,0,0-.15-.69,8.32,8.32,0,0,0-2.33.08,5.12,5.12,0,0,1,.07-2,4.24,4.24,0,0,0,2-.27.36.36,0,0,0,0-.71,3.52,3.52,0,0,0-1.86-.11c-.14,0-.06.17,0-.88A4.42,4.42,0,0,0,11,4.4C11.94,4,14.34,5.33,13.42,4.1ZM11,4.4s0-.07.05-.06S11.08,4.38,11,4.4Z" fill="currentColor" fill-rule="evenodd"/><path d="M15.56,3.9c-1-.5-.54,1.74-.52,2.36.05,1.15-.38,2.51.16,3.7a.62.62,0,0,0,.81.38c.82-.24,1.15-2.37,1.66-3.15.08.07.07.13,1.2,1.91a7.22,7.22,0,0,0,.7.92.54.54,0,0,0,.94-.11c.54-1.16.36-2.87.32-4.12,0-.08-.16-2.14-.42-2.25C19.56,3.18,20,4.92,20,5.79a19,19,0,0,1-.16,2.72c-.2-.35-1.15-2.29-1.79-2.62s-1.23.3-1.54.92a12.52,12.52,0,0,0-.61,1.74C15.81,7.7,15.9,4.07,15.56,3.9Z" fill="currentColor" fill-rule="evenodd"/></g></svg>