<svg xmlns="http://www.w3.org/2000/svg" viewBox="0 0 24 24" class="h-6 w-6 mt-1 drop-shadow-yellow"><path d="M23.91,10.06a15.16,15.16,0,0,0-.53-1.54A3.41,3.41,0,0,0,23,7.74a.5.5,0,0,0-.78,0,1.65,1.65,0,0,0-.31.47c-.27.58-.76,1.86-1.43,3.16-.42.82-.89,1.61-1.37,2.45a16.39,16.39,0,0,0,.3-2.07c0-1-.15-2.24-.09-3.35a3.9,3.9,0,0,1,.23-1.24c.3-.73.6-1.17,1.08-1.31a3,3,0,0,1,1.82.32.32.32,0,1,0,.27-.59A2.91,2.91,0,0,1,22,4.87,10.29,10.29,0,0,0,19.2,2.24,16.18,16.18,0,0,0,15.79.5a7.53,7.53,0,0,0-1-.26c-.51-.09-1-.13-1.53-.17a12,12,0,0,0-8,2.2C.13,5.87-.06,9.49,0,12.84a12.84,12.84,0,0,0,.61,3.79A10.79,10.79,0,0,0,3.39,21a10.44,10.44,0,0,0,4.55,2.44c9.27,2.41,12.89-4,13.54-4.91a14.69,14.69,0,0,0,2.15-4.61A13.18,13.18,0,0,0,24,11.65,6.6,6.6,0,0,0,23.91,10.06ZM10.82,9.7a14.41,14.41,0,0,1-.55-1.51v0a5,5,0,0,0,.56.07q.64.06,1.29.06l.64,0c.4,1.13.73,2.28,1.12,3.42.18.53.39,1.06.6,1.59s.44,1,.69,1.48c.55,1.08,1.17,2.11,1.77,3.16l-1.58,2.59L15.11,20l-1.25-3.23-1.45-3.59C11.91,12,11.31,10.88,10.82,9.7Zm-5-6.62A13.12,13.12,0,0,1,8.6,1.74a11.76,11.76,0,0,1,4.55-.62c.48,0,1,0,1.44.12a5.31,5.31,0,0,1,.9.18,14.2,14.2,0,0,1,3.28,1.5,10,10,0,0,1,2.56,2.14,2.73,2.73,0,0,0-.9,0,2.7,2.7,0,0,0-1.75,1.69,4.73,4.73,0,0,0-.41,1.56c-.1,1.11.11,2.34.06,3.37A17.48,17.48,0,0,1,18,14.8a19.48,19.48,0,0,1-.67,2.44c-.28-.64-.57-1.28-.86-1.93-.35-.8-.7-1.6-1-2.43-.21-.51-.41-1.05-.63-1.56l-.46-1c-.31-.7-.65-1.38-1-2.06.27,0,.55-.05.83-.06h.51a.32.32,0,0,0,.11-.64,4,4,0,0,0-.59-.1c-.42-.06-.85-.08-1.27-.14-.57,0-1.15-.1-1.72-.1-.87,0-1.71.12-2.57.17a.29.29,0,0,0-.31.27.3.3,0,0,0,.28.3c1.12.16,1,.1,1,.4a15.47,15.47,0,0,0,.46,1.61c.16.49.35,1,.53,1.47l-1.1,2.07q-.29.67-.6,1.32a9.32,9.32,0,0,1-.45.83l-.07.14L8,14.52c-.24-.67-.47-1.32-.74-1.95-.39-1-.81-1.88-1.16-2.85-.2-.56-.37-1.13-.52-1.72l.76,0a.33.33,0,1,0,0-.65c-.47-.08-1.18-.2-2-.3-.28,0-.56-.06-.84-.07l-.85,0c-.32,0-.62,0-.9,0A14.43,14.43,0,0,1,5.83,3.08ZM22.9,11.59a12,12,0,0,1-.3,2.06,13.41,13.41,0,0,1-1.83,4.4c-1.08,1.69-4.08,6.83-12.56,4.39a10.09,10.09,0,0,1-4.07-2.26A9.92,9.92,0,0,1,1.57,16.3a12.08,12.08,0,0,1-.73-3.49c0-.27-.2-4,.52-5.12A12.4,12.4,0,0,0,3,8,10.24,10.24,0,0,0,4.34,8H5a22.08,22.08,0,0,0,.61,2.64c.25.85.52,1.69.82,2.54.18.55.38,1.09.56,1.66l.61,1.63s.1.32.14.44a.53.53,0,0,0,.24.28c-.22.45-.44.89-.65,1.34s-.36.81-.52,1.23c-.05.1-.1.24-.16.39L6.3,19c-.24-.76-.68-2-1.2-3.36-.19-.5-.4-1-.61-1.53-1-2.38-1.78-3.86-2.21-5.12a.29.29,0,0,0-.36-.19.28.28,0,0,0-.19.36c.31,1.17.77,2.42,1.55,4.65.33.95.68,1.91,1,2.77.42,1.13.81,2.1,1,2.75L5.89,21l.12.31a.43.43,0,0,0,0-.05,2.07,2.07,0,0,0,.2.39.47.47,0,0,0,.49.05,1.18,1.18,0,0,0,.5-.53,5.89,5.89,0,0,0,.41-1.07c.14-.41.28-.81.44-1.21.23-.59,1.29-2.54,1.4-2.75a10,10,0,0,0,.42-.93c.19-.45.35-.92.52-1.39L11,12.31c.16.41.32.82.46,1.24l1.33,3.62c.26.66.52,1.31.79,2,.19.43.39.86.59,1.28l.51.92a3.05,3.05,0,0,0,.13.32.6.6,0,0,0,.23.17.48.48,0,0,0,.4,0,1,1,0,0,0,.27-.25,3.87,3.87,0,0,0,.24-.41c.51-1,1.92-3.58,2-3.85.34-.71.7-1.37,1.06-2,.76-1.27,1.54-2.36,2.21-3.52.5-.89.93-1.76,1.23-2.41l.32.9A6,6,0,0,1,22.9,11.59Z" fill="currentColor" fill-rule="evenodd"/></svg>